  0
SECTION
  2
BLOCKS
  0
ENDSEC
  0
SECTION
  2
ENTITIES
  0
LINE
  8
0
 10
263.128
 11
264.72
 20
-148.853
 21
-145.975
  0
LINE
  8
0
 10
264.72
 11
265.909
 20
-145.975
 21
-143.825
  0
LINE
  8
0
 10
265.909
 11
267.211
 20
-143.825
 21
-141.358
  0
LINE
  8
0
 10
267.211
 11
270.373
 20
-141.358
 21
-135.212
  0
LINE
  8
0
 10
270.373
 11
271.623
 20
-135.212
 21
-132.719
  0
LINE
  8
0
 10
271.623
 11
273.108
 20
-132.719
 21
-129.598
  0
LINE
  8
0
 10
273.108
 11
274.307
 20
-129.598
 21
-127.079
  0
LINE
  8
0
 10
274.307
 11
275.727
 20
-127.079
 21
-123.929
  0
LINE
  8
0
 10
275.727
 11
276.873
 20
-123.929
 21
-121.386
  0
LINE
  8
0
 10
276.873
 11
278.228
 20
-121.386
 21
-118.207
  0
LINE
  8
0
 10
278.228
 11
279.322
 20
-118.207
 21
-115.64
  0
LINE
  8
0
 10
279.322
 11
280.61
 20
-115.64
 21
-112.434
  0
LINE
  8
0
 10
280.61
 11
281.651
 20
-112.434
 21
-109.846
  0
LINE
  8
0
 10
281.651
 11
282.873
 20
-109.846
 21
-106.613
  0
LINE
  8
0
 10
282.873
 11
283.86
 20
-106.613
 21
-104.004
  0
LINE
  8
0
 10
283.86
 11
285.015
 20
-104.004
 21
-100.747
  0
LINE
  8
0
 10
285.015
 11
285.948
 20
-100.747
 21
-98.118
  0
LINE
  8
0
 10
285.948
 11
287.036
 20
-98.118
 21
-94.838
  0
LINE
  8
0
 10
287.036
 11
287.914
 20
-94.838
 21
-92.19
  0
LINE
  8
0
 10
287.914
 11
288.933
 20
-92.19
 21
-88.888
  0
LINE
  8
0
 10
288.933
 11
289.757
 20
-88.888
 21
-86.223
  0
LINE
  8
0
 10
289.757
 11
290.708
 20
-86.223
 21
-82.9
  0
LINE
  8
0
 10
290.708
 11
291.476
 20
-82.9
 21
-80.219
  0
LINE
  8
0
 10
291.476
 11
292.359
 20
-80.219
 21
-76.878
  0
LINE
  8
0
 10
292.359
 11
293.071
 20
-76.878
 21
-74.181
  0
LINE
  8
0
 10
293.071
 11
293.884
 20
-74.181
 21
-70.822
  0
LINE
  8
0
 10
293.884
 11
294.541
 20
-70.822
 21
-68.111
  0
LINE
  8
0
 10
294.541
 11
295.285
 20
-68.111
 21
-64.736
  0
LINE
  8
0
 10
295.285
 11
295.885
 20
-64.736
 21
-62.012
  0
LINE
  8
0
 10
295.885
 11
296.559
 20
-62.012
 21
-58.623
  0
LINE
  8
0
 10
296.559
 11
297.103
 20
-58.623
 21
-55.886
  0
LINE
  8
0
 10
297.103
 11
297.707
 20
-55.886
 21
-52.483
  0
LINE
  8
0
 10
297.707
 11
298.194
 20
-52.483
 21
-49.737
  0
LINE
  8
0
 10
298.194
 11
298.727
 20
-49.737
 21
-46.323
  0
LINE
  8
0
 10
298.727
 11
299.158
 20
-46.323
 21
-43.566
  0
LINE
  8
0
 10
299.158
 11
299.62
 20
-43.566
 21
-40.142
  0
LINE
  8
0
 10
299.62
 11
299.994
 20
-40.142
 21
-37.377
  0
LINE
  8
0
 10
299.994
 11
300.386
 20
-37.377
 21
-33.944
  0
LINE
  8
0
 10
300.386
 11
300.702
 20
-33.944
 21
-31.172
  0
LINE
  8
0
 10
300.702
 11
301.023
 20
-31.172
 21
-27.731
  0
LINE
  8
0
 10
301.023
 11
301.282
 20
-27.731
 21
-24.954
  0
LINE
  8
0
 10
301.282
 11
301.531
 20
-24.954
 21
-21.507
  0
LINE
  8
0
 10
301.531
 11
301.733
 20
-21.507
 21
-18.724
  0
LINE
  8
0
 10
301.733
 11
301.911
 20
-18.724
 21
-15.274
  0
LINE
  8
0
 10
301.911
 11
302.055
 20
-15.274
 21
-12.487
  0
LINE
  8
0
 10
302.055
 11
302.162
 20
-12.487
 21
-9.033
  0
LINE
  8
0
 10
302.162
 11
302.249
 20
-9.033
 21
-6.245
  0
LINE
  8
0
 10
302.249
 11
302.284
 20
-6.245
 21
-2.789
  0
LINE
  8
0
 10
302.284
 11
302.313
 20
-2.789
 21
0
  0
LINE
  8
0
 10
302.313
 11
302.278
 20
0
 21
3.456
  0
LINE
  8
0
 10
302.278
 11
302.249
 20
3.456
 21
6.245
  0
LINE
  8
0
 10
302.249
 11
302.142
 20
6.245
 21
9.699
  0
LINE
  8
0
 10
302.142
 11
302.055
 20
9.699
 21
12.487
  0
LINE
  8
0
 10
302.055
 11
301.877
 20
12.487
 21
15.939
  0
LINE
  8
0
 10
301.877
 11
301.733
 20
15.939
 21
18.724
  0
LINE
  8
0
 10
301.733
 11
301.483
 20
18.724
 21
22.171
  0
LINE
  8
0
 10
301.483
 11
301.282
 20
22.171
 21
24.954
  0
LINE
  8
0
 10
301.282
 11
300.961
 20
24.954
 21
28.395
  0
LINE
  8
0
 10
300.961
 11
300.702
 20
28.395
 21
31.172
  0
LINE
  8
0
 10
300.702
 11
300.31
 20
31.172
 21
34.605
  0
LINE
  8
0
 10
300.31
 11
299.994
 20
34.605
 21
37.377
  0
LINE
  8
0
 10
299.994
 11
299.531
 20
37.377
 21
40.801
  0
LINE
  8
0
 10
299.531
 11
299.158
 20
40.801
 21
43.566
  0
LINE
  8
0
 10
299.158
 11
298.624
 20
43.566
 21
46.98
  0
LINE
  8
0
 10
298.624
 11
298.194
 20
46.98
 21
49.737
  0
LINE
  8
0
 10
298.194
 11
297.59
 20
49.737
 21
53.139
  0
LINE
  8
0
 10
297.59
 11
297.103
 20
53.139
 21
55.886
  0
LINE
  8
0
 10
297.103
 11
296.429
 20
55.886
 21
59.276
  0
LINE
  8
0
 10
296.429
 11
295.885
 20
59.276
 21
62.012
  0
LINE
  8
0
 10
295.885
 11
295.141
 20
62.012
 21
65.386
  0
LINE
  8
0
 10
295.141
 11
294.541
 20
65.386
 21
68.111
  0
LINE
  8
0
 10
294.541
 11
293.727
 20
68.111
 21
71.469
  0
LINE
  8
0
 10
293.727
 11
293.071
 20
71.469
 21
74.181
  0
LINE
  8
0
 10
293.071
 11
292.188
 20
74.181
 21
77.522
  0
LINE
  8
0
 10
292.188
 11
291.476
 20
77.522
 21
80.219
  0
LINE
  8
0
 10
291.476
 11
290.525
 20
80.219
 21
83.541
  0
LINE
  8
0
 10
290.525
 11
289.757
 20
83.541
 21
86.223
  0
LINE
  8
0
 10
289.757
 11
288.737
 20
86.223
 21
89.525
  0
LINE
  8
0
 10
288.737
 11
287.914
 20
89.525
 21
92.19
  0
LINE
  8
0
 10
287.914
 11
286.826
 20
92.19
 21
95.47
  0
LINE
  8
0
 10
286.826
 11
285.948
 20
95.47
 21
98.118
  0
LINE
  8
0
 10
285.948
 11
284.793
 20
98.118
 21
101.375
  0
LINE
  8
0
 10
284.793
 11
283.86
 20
101.375
 21
104.004
  0
LINE
  8
0
 10
283.86
 11
282.638
 20
104.004
 21
107.236
  0
LINE
  8
0
 10
282.638
 11
281.651
 20
107.236
 21
109.846
  0
LINE
  8
0
 10
281.651
 11
280.362
 20
109.846
 21
113.052
  0
LINE
  8
0
 10
280.362
 11
279.322
 20
113.052
 21
115.64
  0
LINE
  8
0
 10
279.322
 11
277.967
 20
115.64
 21
118.819
  0
LINE
  8
0
 10
277.967
 11
276.873
 20
118.819
 21
121.386
  0
LINE
  8
0
 10
276.873
 11
275.453
 20
121.386
 21
124.536
  0
LINE
  8
0
 10
275.453
 11
274.307
 20
124.536
 21
127.079
  0
LINE
  8
0
 10
274.307
 11
272.822
 20
127.079
 21
130.2
  0
LINE
  8
0
 10
272.822
 11
271.623
 20
130.2
 21
132.719
  0
LINE
  8
0
 10
271.623
 11
270.074
 20
132.719
 21
135.808
  0
LINE
  8
0
 10
270.074
 11
268.823
 20
135.808
 21
138.302
  0
LINE
  8
0
 10
268.823
 11
267.211
 20
138.302
 21
141.358
  0
LINE
  8
0
 10
267.211
 11
265.909
 20
141.358
 21
143.825
  0
LINE
  8
0
 10
265.909
 11
264.3
 20
143.825
 21
146.733
  0
LINE
  8
0
 10
264.3
 11
263.128
 20
146.733
 21
148.853
  0
LINE
  8
0
 10
263.128
 11
269.389
 20
148.853
 21
152.409
  0
LINE
  8
0
 10
269.389
 11
376.701
 20
152.409
 21
213.35
  0
LINE
  8
0
 10
376.701
 11
527.596
 20
213.35
 21
299.042
  0
LINE
  8
0
 10
527.596
 11
530.057
 20
299.042
 21
294.598
  0
LINE
  8
0
 10
530.057
 11
533.423
 20
294.598
 21
288.519
  0
LINE
  8
0
 10
533.423
 11
536.648
 20
288.519
 21
282.406
  0
LINE
  8
0
 10
536.648
 11
539.269
 20
282.406
 21
277.438
  0
LINE
  8
0
 10
539.269
 11
542.368
 20
277.438
 21
271.26
  0
LINE
  8
0
 10
542.368
 11
544.885
 20
271.26
 21
266.239
  0
LINE
  8
0
 10
544.885
 11
547.855
 20
266.239
 21
259.998
  0
LINE
  8
0
 10
547.855
 11
550.269
 20
259.998
 21
254.926
  0
LINE
  8
0
 10
550.269
 11
553.109
 20
254.926
 21
248.625
  0
LINE
  8
0
 10
553.109
 11
555.418
 20
248.625
 21
243.505
  0
LINE
  8
0
 10
555.418
 11
558.127
 20
243.505
 21
237.147
  0
LINE
  8
0
 10
558.127
 11
560.329
 20
237.147
 21
231.979
  0
LINE
  8
0
 10
560.329
 11
562.907
 20
231.979
 21
225.566
  0
LINE
  8
0
 10
562.907
 11
565.002
 20
225.566
 21
220.354
  0
LINE
  8
0
 10
565.002
 11
567.447
 20
220.354
 21
213.889
  0
LINE
  8
0
 10
567.447
 11
569.433
 20
213.889
 21
208.636
  0
LINE
  8
0
 10
569.433
 11
571.744
 20
208.636
 21
202.122
  0
LINE
  8
0
 10
571.744
 11
573.622
 20
202.122
 21
196.828
  0
LINE
  8
0
 10
573.622
 11
575.797
 20
196.828
 21
190.269
  0
LINE
  8
0
 10
575.797
 11
577.565
 20
190.269
 21
184.937
  0
LINE
  8
0
 10
577.565
 11
579.605
 20
184.937
 21
178.333
  0
LINE
  8
0
 10
579.605
 11
581.262
 20
178.333
 21
172.966
  0
LINE
  8
0
 10
581.262
 11
583.165
 20
172.966
 21
166.322
  0
LINE
  8
0
 10
583.165
 11
584.711
 20
166.322
 21
160.922
  0
LINE
  8
0
 10
584.711
 11
586.476
 20
160.922
 21
154.24
  0
LINE
  8
0
 10
586.476
 11
587.911
 20
154.24
 21
148.809
  0
LINE
  8
0
 10
587.911
 11
589.538
 20
148.809
 21
142.091
  0
LINE
  8
0
 10
589.538
 11
590.859
 20
142.091
 21
136.632
  0
LINE
  8
0
 10
590.859
 11
592.347
 20
136.632
 21
129.884
  0
LINE
  8
0
 10
592.347
 11
593.556
 20
129.884
 21
124.397
  0
LINE
  8
0
 10
593.556
 11
594.904
 20
124.397
 21
117.618
  0
LINE
  8
0
 10
594.904
 11
595.999
 20
117.618
 21
112.109
  0
LINE
  8
0
 10
595.999
 11
597.206
 20
112.109
 21
105.305
  0
LINE
  8
0
 10
597.206
 11
598.188
 20
105.305
 21
99.774
  0
LINE
  8
0
 10
598.188
 11
599.254
 20
99.774
 21
92.945
  0
LINE
  8
0
 10
599.254
 11
600.121
 20
92.945
 21
87.395
  0
LINE
  8
0
 10
600.121
 11
601.046
 20
87.395
 21
80.546
  0
LINE
  8
0
 10
601.046
 11
601.798
 20
80.546
 21
74.98
  0
LINE
  8
0
 10
601.798
 11
602.582
 20
74.98
 21
68.113
  0
LINE
  8
0
 10
602.582
 11
603.219
 20
68.113
 21
62.532
  0
LINE
  8
0
 10
603.219
 11
603.86
 20
62.532
 21
55.651
  0
LINE
  8
0
 10
603.86
 11
604.382
 20
55.651
 21
50.058
  0
LINE
  8
0
 10
604.382
 11
604.881
 20
50.058
 21
43.164
  0
LINE
  8
0
 10
604.881
 11
605.287
 20
43.164
 21
37.562
  0
LINE
  8
0
 10
605.287
 11
605.644
 20
37.562
 21
30.66
  0
LINE
  8
0
 10
605.644
 11
605.934
 20
30.66
 21
25.05
  0
LINE
  8
0
 10
605.934
 11
606.148
 20
25.05
 21
18.142
  0
LINE
  8
0
 10
606.148
 11
606.322
 20
18.142
 21
12.528
  0
LINE
  8
0
 10
606.322
 11
606.393
 20
12.528
 21
5.617
  0
LINE
  8
0
 10
606.393
 11
606.451
 20
5.617
 21
0
  0
LINE
  8
0
 10
606.451
 11
606.393
 20
0
 21
-5.617
  0
LINE
  8
0
 10
606.393
 11
606.322
 20
-5.617
 21
-12.528
  0
LINE
  8
0
 10
606.322
 11
606.148
 20
-12.528
 21
-18.142
  0
LINE
  8
0
 10
606.148
 11
605.934
 20
-18.142
 21
-25.05
  0
LINE
  8
0
 10
605.934
 11
605.644
 20
-25.05
 21
-30.66
  0
LINE
  8
0
 10
605.644
 11
605.287
 20
-30.66
 21
-37.562
  0
LINE
  8
0
 10
605.287
 11
604.881
 20
-37.562
 21
-43.164
  0
LINE
  8
0
 10
604.881
 11
604.382
 20
-43.164
 21
-50.058
  0
LINE
  8
0
 10
604.382
 11
603.86
 20
-50.058
 21
-55.651
  0
LINE
  8
0
 10
603.86
 11
603.219
 20
-55.651
 21
-62.532
  0
LINE
  8
0
 10
603.219
 11
602.582
 20
-62.532
 21
-68.113
  0
LINE
  8
0
 10
602.582
 11
601.798
 20
-68.113
 21
-74.98
  0
LINE
  8
0
 10
601.798
 11
601.046
 20
-74.98
 21
-80.546
  0
LINE
  8
0
 10
601.046
 11
600.121
 20
-80.546
 21
-87.395
  0
LINE
  8
0
 10
600.121
 11
599.254
 20
-87.395
 21
-92.945
  0
LINE
  8
0
 10
599.254
 11
598.188
 20
-92.945
 21
-99.774
  0
LINE
  8
0
 10
598.188
 11
597.206
 20
-99.774
 21
-105.305
  0
LINE
  8
0
 10
597.206
 11
595.999
 20
-105.305
 21
-112.109
  0
LINE
  8
0
 10
595.999
 11
594.904
 20
-112.109
 21
-117.618
  0
LINE
  8
0
 10
594.904
 11
593.556
 20
-117.618
 21
-124.397
  0
LINE
  8
0
 10
593.556
 11
592.347
 20
-124.397
 21
-129.884
  0
LINE
  8
0
 10
592.347
 11
590.859
 20
-129.884
 21
-136.632
  0
LINE
  8
0
 10
590.859
 11
589.538
 20
-136.632
 21
-142.091
  0
LINE
  8
0
 10
589.538
 11
587.911
 20
-142.091
 21
-148.809
  0
LINE
  8
0
 10
587.911
 11
586.476
 20
-148.809
 21
-154.24
  0
LINE
  8
0
 10
586.476
 11
584.711
 20
-154.24
 21
-160.922
  0
LINE
  8
0
 10
584.711
 11
583.165
 20
-160.922
 21
-166.322
  0
LINE
  8
0
 10
583.165
 11
581.262
 20
-166.322
 21
-172.966
  0
LINE
  8
0
 10
581.262
 11
579.605
 20
-172.966
 21
-178.333
  0
LINE
  8
0
 10
579.605
 11
577.565
 20
-178.333
 21
-184.937
  0
LINE
  8
0
 10
577.565
 11
575.797
 20
-184.937
 21
-190.269
  0
LINE
  8
0
 10
575.797
 11
573.622
 20
-190.269
 21
-196.828
  0
LINE
  8
0
 10
573.622
 11
571.744
 20
-196.828
 21
-202.122
  0
LINE
  8
0
 10
571.744
 11
569.433
 20
-202.122
 21
-208.636
  0
LINE
  8
0
 10
569.433
 11
567.447
 20
-208.636
 21
-213.889
  0
LINE
  8
0
 10
567.447
 11
565.002
 20
-213.889
 21
-220.354
  0
LINE
  8
0
 10
565.002
 11
562.907
 20
-220.354
 21
-225.566
  0
LINE
  8
0
 10
562.907
 11
560.329
 20
-225.566
 21
-231.979
  0
LINE
  8
0
 10
560.329
 11
558.127
 20
-231.979
 21
-237.147
  0
LINE
  8
0
 10
558.127
 11
555.418
 20
-237.147
 21
-243.505
  0
LINE
  8
0
 10
555.418
 11
553.109
 20
-243.505
 21
-248.625
  0
LINE
  8
0
 10
553.109
 11
550.269
 20
-248.625
 21
-254.926
  0
LINE
  8
0
 10
550.269
 11
547.855
 20
-254.926
 21
-259.998
  0
LINE
  8
0
 10
547.855
 11
544.885
 20
-259.998
 21
-266.239
  0
LINE
  8
0
 10
544.885
 11
542.368
 20
-266.239
 21
-271.26
  0
LINE
  8
0
 10
542.368
 11
539.269
 20
-271.26
 21
-277.438
  0
LINE
  8
0
 10
539.269
 11
536.648
 20
-277.438
 21
-282.406
  0
LINE
  8
0
 10
536.648
 11
533.423
 20
-282.406
 21
-288.519
  0
LINE
  8
0
 10
533.423
 11
530.925
 20
-288.519
 21
-293.03
  0
LINE
  8
0
 10
530.925
 11
527.596
 20
-293.03
 21
-299.042
  0
LINE
  8
0
 10
527.596
 11
515.036
 20
-299.042
 21
-291.909
  0
LINE
  8
0
 10
515.036
 11
370.446
 20
-291.909
 21
-209.797
  0
LINE
  8
0
 10
370.446
 11
263.128
 20
-209.797
 21
-148.853
  0
LINE
  8
0
 10
530.731
 11
530.743
 20
89.048
 21
89.881
  0
LINE
  8
0
 10
530.743
 11
530.749
 20
89.881
 21
92.538
  0
LINE
  8
0
 10
530.749
 11
530.748
 20
92.538
 21
93.588
  0
LINE
  8
0
 10
530.748
 11
530.945
 20
93.588
 21
96.987
  0
LINE
  8
0
 10
530.945
 11
531.007
 20
96.987
 21
98.259
  0
LINE
  8
0
 10
531.007
 11
531.041
 20
98.259
 21
98.565
  0
LINE
  8
0
 10
531.041
 11
531.199
 20
98.565
 21
99.92
  0
LINE
  8
0
 10
531.199
 11
531.289
 20
99.92
 21
100.786
  0
LINE
  8
0
 10
531.289
 11
531.377
 20
100.786
 21
101.731
  0
LINE
  8
0
 10
531.377
 11
531.495
 20
101.731
 21
103.014
  0
LINE
  8
0
 10
531.495
 11
532.068
 20
103.014
 21
106.772
  0
LINE
  8
0
 10
532.068
 11
532.204
 20
106.772
 21
107.784
  0
LINE
  8
0
 10
532.204
 11
532.355
 20
107.784
 21
108.554
  0
LINE
  8
0
 10
532.355
 11
532.982
 20
108.554
 21
111.6
  0
LINE
  8
0
 10
532.982
 11
533.125
 20
111.6
 21
112.492
  0
LINE
  8
0
 10
533.125
 11
533.169
 20
112.492
 21
112.636
  0
LINE
  8
0
 10
533.169
 11
533.4
 20
112.636
 21
113.41
  0
LINE
  8
0
 10
533.4
 11
534.044
 20
113.41
 21
115.93
  0
LINE
  8
0
 10
534.044
 11
534.273
 20
115.93
 21
116.95
  0
LINE
  8
0
 10
534.273
 11
535.389
 20
116.95
 21
120.007
  0
LINE
  8
0
 10
535.389
 11
535.671
 20
120.007
 21
120.946
  0
LINE
  8
0
 10
535.671
 11
535.871
 20
120.946
 21
121.328
  0
LINE
  8
0
 10
535.871
 11
537.019
 20
121.328
 21
123.32
  0
LINE
  8
0
 10
537.019
 11
537.372
 20
123.32
 21
124.126
  0
LINE
  8
0
 10
537.372
 11
538.746
 20
124.126
 21
125.215
  0
LINE
  8
0
 10
538.746
 11
539.478
 20
125.215
 21
125.949
  0
LINE
  8
0
 10
539.478
 11
540.376
 20
125.949
 21
125.923
  0
LINE
  8
0
 10
540.376
 11
542.065
 20
125.923
 21
125.982
  0
LINE
  8
0
 10
542.065
 11
543.272
 20
125.982
 21
125.246
  0
LINE
  8
0
 10
543.272
 11
545.044
 20
125.246
 21
124.403
  0
LINE
  8
0
 10
545.044
 11
545.104
 20
124.403
 21
124.344
  0
LINE
  8
0
 10
545.104
 11
545.903
 20
124.344
 21
123.627
  0
LINE
  8
0
 10
545.903
 11
548.226
 20
123.627
 21
121.776
  0
LINE
  8
0
 10
548.226
 11
548.822
 20
121.776
 21
121.125
  0
LINE
  8
0
 10
548.822
 11
551.47
 20
121.125
 21
118.479
  0
LINE
  8
0
 10
551.47
 11
552.477
 20
118.479
 21
117.263
  0
LINE
  8
0
 10
552.477
 11
552.538
 20
117.263
 21
117.195
  0
LINE
  8
0
 10
552.538
 11
554.675
 20
117.195
 21
114.757
  0
LINE
  8
0
 10
554.675
 11
555.501
 20
114.757
 21
113.666
  0
LINE
  8
0
 10
555.501
 11
557.754
 20
113.666
 21
110.802
  0
LINE
  8
0
 10
557.754
 11
558.321
 20
110.802
 21
109.986
  0
LINE
  8
0
 10
558.321
 11
560.618
 20
109.986
 21
106.755
  0
LINE
  8
0
 10
560.618
 11
560.647
 20
106.755
 21
106.716
  0
LINE
  8
0
 10
560.647
 11
561.127
 20
106.716
 21
105.943
  0
LINE
  8
0
 10
561.127
 11
561.586
 20
105.943
 21
105.228
  0
LINE
  8
0
 10
561.586
 11
563.31
 20
105.228
 21
102.554
  0
LINE
  8
0
 10
563.31
 11
563.807
 20
102.554
 21
101.677
  0
LINE
  8
0
 10
563.807
 11
565.702
 20
101.677
 21
98.378
  0
LINE
  8
0
 10
565.702
 11
566.272
 20
98.378
 21
97.238
  0
LINE
  8
0
 10
566.272
 11
567.792
 20
97.238
 21
94.223
  0
LINE
  8
0
 10
567.792
 11
567.808
 20
94.223
 21
94.185
  0
LINE
  8
0
 10
567.808
 11
568.358
 20
94.185
 21
92.901
  0
LINE
  8
0
 10
568.358
 11
569.556
 20
92.901
 21
90.123
  0
LINE
  8
0
 10
569.556
 11
569.817
 20
90.123
 21
89.381
  0
LINE
  8
0
 10
569.817
 11
570.972
 20
89.381
 21
86.108
  0
LINE
  8
0
 10
570.972
 11
571.252
 20
86.108
 21
85.073
  0
LINE
  8
0
 10
571.252
 11
571.285
 20
85.073
 21
84.953
  0
LINE
  8
0
 10
571.285
 11
572.028
 20
84.953
 21
82.207
  0
LINE
  8
0
 10
572.028
 11
572.233
 20
82.207
 21
81.093
  0
LINE
  8
0
 10
572.233
 11
572.718
 20
81.093
 21
78.446
  0
LINE
  8
0
 10
572.718
 11
572.776
 20
78.446
 21
77.797
  0
LINE
  8
0
 10
572.776
 11
573.037
 20
77.797
 21
74.852
  0
LINE
  8
0
 10
573.037
 11
573.025
 20
74.852
 21
73.907
  0
LINE
  8
0
 10
573.025
 11
572.991
 20
73.907
 21
71.45
  0
LINE
  8
0
 10
572.991
 11
572.969
 20
71.45
 21
71.269
  0
LINE
  8
0
 10
572.969
 11
572.844
 20
71.269
 21
70.276
  0
LINE
  8
0
 10
572.844
 11
572.587
 20
70.276
 21
68.266
  0
LINE
  8
0
 10
572.587
 11
572.425
 20
68.266
 21
67.625
  0
LINE
  8
0
 10
572.425
 11
571.838
 20
67.625
 21
65.323
  0
LINE
  8
0
 10
571.838
 11
571.65
 20
65.323
 21
64.852
  0
LINE
  8
0
 10
571.65
 11
570.765
 20
64.852
 21
62.644
  0
LINE
  8
0
 10
570.765
 11
570.425
 20
62.644
 21
62.049
  0
LINE
  8
0
 10
570.425
 11
569.391
 20
62.049
 21
60.25
  0
LINE
  8
0
 10
569.391
 11
568.884
 20
60.25
 21
59.606
  0
LINE
  8
0
 10
568.884
 11
568.764
 20
59.606
 21
59.454
  0
LINE
  8
0
 10
568.764
 11
567.742
 20
59.454
 21
58.162
  0
LINE
  8
0
 10
567.742
 11
567.084
 20
58.162
 21
57.546
  0
LINE
  8
0
 10
567.084
 11
565.851
 20
57.546
 21
56.396
  0
LINE
  8
0
 10
565.851
 11
565.301
 20
56.396
 21
56.022
  0
LINE
  8
0
 10
565.301
 11
563.749
 20
56.022
 21
54.969
  0
LINE
  8
0
 10
563.749
 11
563.263
 20
54.969
 21
54.738
  0
LINE
  8
0
 10
563.263
 11
561.474
 20
54.738
 21
53.893
  0
LINE
  8
0
 10
561.474
 11
559.517
 20
53.893
 21
53.314
  0
LINE
  8
0
 10
559.517
 11
559.065
 20
53.314
 21
53.18
  0
LINE
  8
0
 10
559.065
 11
557.024
 20
53.18
 21
52.899
  0
LINE
  8
0
 10
557.024
 11
556.56
 20
52.899
 21
52.836
  0
LINE
  8
0
 10
556.56
 11
554.485
 20
52.836
 21
52.86
  0
LINE
  8
0
 10
554.485
 11
553.999
 20
52.86
 21
52.866
  0
LINE
  8
0
 10
553.999
 11
551.949
 20
52.866
 21
53.189
  0
LINE
  8
0
 10
551.949
 11
551.422
 20
53.189
 21
53.272
  0
LINE
  8
0
 10
551.422
 11
549.478
 20
53.272
 21
53.866
  0
LINE
  8
0
 10
549.478
 11
548.869
 20
53.866
 21
54.052
  0
LINE
  8
0
 10
548.869
 11
547.135
 20
54.052
 21
54.851
  0
LINE
  8
0
 10
547.135
 11
546.374
 20
54.851
 21
55.203
  0
LINE
  8
0
 10
546.374
 11
545.787
 20
55.203
 21
55.574
  0
LINE
  8
0
 10
545.787
 11
544.42
 20
55.574
 21
56.437
  0
LINE
  8
0
 10
544.42
 11
544.334
 20
56.437
 21
56.491
  0
LINE
  8
0
 10
544.334
 11
543.975
 20
56.491
 21
56.719
  0
LINE
  8
0
 10
543.975
 11
543.22
 20
56.719
 21
57.338
  0
LINE
  8
0
 10
543.22
 11
542.421
 20
57.338
 21
57.999
  0
LINE
  8
0
 10
542.421
 11
541.706
 20
57.999
 21
58.589
  0
LINE
  8
0
 10
541.706
 11
540.025
 20
58.589
 21
60.351
  0
LINE
  8
0
 10
540.025
 11
539.594
 20
60.351
 21
60.804
  0
LINE
  8
0
 10
539.594
 11
538.071
 20
60.804
 21
62.815
  0
LINE
  8
0
 10
538.071
 11
537.667
 20
62.815
 21
63.349
  0
LINE
  8
0
 10
537.667
 11
536.52
 20
63.349
 21
65.256
  0
LINE
  8
0
 10
536.52
 11
535.947
 20
65.256
 21
66.212
  0
LINE
  8
0
 10
535.947
 11
535.907
 20
66.212
 21
66.296
  0
LINE
  8
0
 10
535.907
 11
535.695
 20
66.296
 21
66.744
  0
LINE
  8
0
 10
535.695
 11
535.308
 20
66.744
 21
67.561
  0
LINE
  8
0
 10
535.308
 11
534.905
 20
67.561
 21
68.418
  0
LINE
  8
0
 10
534.905
 11
534.453
 20
68.418
 21
69.376
  0
LINE
  8
0
 10
534.453
 11
533.451
 20
69.376
 21
72.133
  0
LINE
  8
0
 10
533.451
 11
533.2
 20
72.133
 21
72.824
  0
LINE
  8
0
 10
533.2
 11
532.505
 20
72.824
 21
75.401
  0
LINE
  8
0
 10
532.505
 11
532.198
 20
75.401
 21
76.536
  0
LINE
  8
0
 10
532.198
 11
532.161
 20
76.536
 21
76.734
  0
LINE
  8
0
 10
532.161
 11
532.023
 20
76.734
 21
77.478
  0
LINE
  8
0
 10
532.023
 11
531.859
 20
77.478
 21
78.348
  0
LINE
  8
0
 10
531.859
 11
531.658
 20
78.348
 21
79.409
  0
LINE
  8
0
 10
531.658
 11
531.452
 20
79.409
 21
80.493
  0
LINE
  8
0
 10
531.452
 11
531.069
 20
80.493
 21
83.789
  0
LINE
  8
0
 10
531.069
 11
530.965
 20
83.789
 21
84.672
  0
LINE
  8
0
 10
530.965
 11
530.917
 20
84.672
 21
85.577
  0
LINE
  8
0
 10
530.917
 11
530.764
 20
85.577
 21
88.528
  0
LINE
  8
0
 10
530.764
 11
530.762
 20
88.528
 21
88.553
  0
LINE
  8
0
 10
530.762
 11
530.731
 20
88.553
 21
89.048
  0
ENDSEC
  0
SECTION
  2
OBJECTS
  0
DICTIONARY
  0
ENDSEC
  0
EOF
