  0
SECTION
  2
BLOCKS
  0
ENDSEC
  0
SECTION
  2
ENTITIES
  0
LINE
  8
0
 10
360.957
 11
361.336
 20
401.783
 21
405.058
  0
LINE
  8
0
 10
361.336
 11
361.353
 20
405.058
 21
405.311
  0
LINE
  8
0
 10
361.353
 11
362.308
 20
405.311
 21
407.459
  0
LINE
  8
0
 10
362.308
 11
362.494
 20
407.459
 21
407.942
  0
LINE
  8
0
 10
362.494
 11
364.095
 20
407.942
 21
408.998
  0
LINE
  8
0
 10
364.095
 11
364.591
 20
408.998
 21
409.333
  0
LINE
  8
0
 10
364.591
 11
365.257
 20
409.333
 21
409.331
  0
LINE
  8
0
 10
365.257
 11
367.659
 20
409.331
 21
409.396
  0
LINE
  8
0
 10
367.659
 11
368.091
 20
409.396
 21
409.264
  0
LINE
  8
0
 10
368.091
 11
371.482
 20
409.264
 21
408.354
  0
LINE
  8
0
 10
371.482
 11
371.632
 20
408.354
 21
408.286
  0
LINE
  8
0
 10
371.632
 11
375.756
 20
408.286
 21
406.545
  0
LINE
  8
0
 10
375.756
 11
376.833
 20
406.545
 21
405.967
  0
LINE
  8
0
 10
376.833
 11
376.938
 20
405.967
 21
405.916
  0
LINE
  8
0
 10
376.938
 11
380.247
 20
405.916
 21
404.215
  0
LINE
  8
0
 10
380.247
 11
381.251
 20
404.215
 21
403.609
  0
LINE
  8
0
 10
381.251
 11
384.771
 20
403.609
 21
401.546
  0
LINE
  8
0
 10
384.771
 11
384.924
 20
401.546
 21
401.445
  0
LINE
  8
0
 10
384.924
 11
389.203
 20
401.445
 21
398.651
  0
LINE
  8
0
 10
389.203
 11
389.969
 20
398.651
 21
398.088
  0
LINE
  8
0
 10
389.969
 11
390.382
 20
398.088
 21
397.795
  0
LINE
  8
0
 10
390.382
 11
393.457
 20
397.795
 21
395.589
  0
LINE
  8
0
 10
393.457
 11
394.01
 20
395.589
 21
395.147
  0
LINE
  8
0
 10
394.01
 11
397.462
 20
395.147
 21
392.412
  0
LINE
  8
0
 10
397.462
 11
397.724
 20
392.412
 21
392.181
  0
LINE
  8
0
 10
397.724
 11
401.164
 20
392.181
 21
389.152
  0
LINE
  8
0
 10
401.164
 11
401.409
 20
389.152
 21
388.908
  0
LINE
  8
0
 10
401.409
 11
402.376
 20
388.908
 21
387.954
  0
LINE
  8
0
 10
402.376
 11
404.523
 20
387.954
 21
385.837
  0
LINE
  8
0
 10
404.523
 11
404.737
 20
385.837
 21
385.596
  0
LINE
  8
0
 10
404.737
 11
407.503
 20
385.596
 21
382.491
  0
LINE
  8
0
 10
407.503
 11
407.895
 20
382.491
 21
381.982
  0
LINE
  8
0
 10
407.895
 11
410.077
 20
381.982
 21
379.141
  0
LINE
  8
0
 10
410.077
 11
410.078
 20
379.141
 21
379.139
  0
LINE
  8
0
 10
410.078
 11
410.775
 20
379.139
 21
378.062
  0
LINE
  8
0
 10
410.775
 11
412.231
 20
378.062
 21
375.805
  0
LINE
  8
0
 10
412.231
 11
412.345
 20
375.805
 21
375.587
  0
LINE
  8
0
 10
412.345
 11
413.948
 20
375.587
 21
372.512
  0
LINE
  8
0
 10
413.948
 11
414.058
 20
372.512
 21
372.235
  0
LINE
  8
0
 10
414.058
 11
415.223
 20
372.235
 21
369.287
  0
LINE
  8
0
 10
415.223
 11
415.345
 20
369.287
 21
368.835
  0
LINE
  8
0
 10
415.345
 11
415.508
 20
368.835
 21
368.221
  0
LINE
  8
0
 10
415.508
 11
416.055
 20
368.221
 21
366.153
  0
LINE
  8
0
 10
416.055
 11
416.123
 20
366.153
 21
365.646
  0
LINE
  8
0
 10
416.123
 11
416.452
 20
365.646
 21
363.14
  0
LINE
  8
0
 10
416.452
 11
416.452
 20
363.14
 21
363.054
  0
LINE
  8
0
 10
416.452
 11
416.425
 20
363.054
 21
360.273
  0
LINE
  8
0
 10
416.425
 11
416.39
 20
360.273
 21
360.057
  0
LINE
  8
0
 10
416.39
 11
415.99
 20
360.057
 21
357.581
  0
LINE
  8
0
 10
415.99
 11
415.71
 20
357.581
 21
356.731
  0
LINE
  8
0
 10
415.71
 11
415.167
 20
356.731
 21
355.089
  0
LINE
  8
0
 10
415.167
 11
415.165
 20
355.089
 21
355.085
  0
LINE
  8
0
 10
415.165
 11
414.708
 20
355.085
 21
354.208
  0
LINE
  8
0
 10
414.708
 11
413.984
 20
354.208
 21
352.825
  0
LINE
  8
0
 10
413.984
 11
413.639
 20
352.825
 21
352.367
  0
LINE
  8
0
 10
413.639
 11
412.468
 20
352.367
 21
350.814
  0
LINE
  8
0
 10
412.468
 11
412.238
 20
350.814
 21
350.593
  0
LINE
  8
0
 10
412.238
 11
410.652
 20
350.593
 21
349.078
  0
LINE
  8
0
 10
410.652
 11
410.499
 20
349.078
 21
348.972
  0
LINE
  8
0
 10
410.499
 11
408.569
 20
348.972
 21
347.639
  0
LINE
  8
0
 10
408.569
 11
406.365
 20
347.639
 21
346.57
  0
LINE
  8
0
 10
406.365
 11
406.258
 20
346.57
 21
346.518
  0
LINE
  8
0
 10
406.258
 11
403.886
 20
346.518
 21
345.77
  0
LINE
  8
0
 10
403.886
 11
403.755
 20
345.77
 21
345.729
  0
LINE
  8
0
 10
403.755
 11
401.298
 20
345.729
 21
345.32
  0
LINE
  8
0
 10
401.298
 11
401.1
 20
345.32
 21
345.287
  0
LINE
  8
0
 10
401.1
 11
398.68
 20
345.287
 21
345.212
  0
LINE
  8
0
 10
398.68
 11
398.33
 20
345.212
 21
345.202
  0
LINE
  8
0
 10
398.33
 11
396.122
 20
345.202
 21
345.418
  0
LINE
  8
0
 10
396.122
 11
395.484
 20
345.418
 21
345.481
  0
LINE
  8
0
 10
395.484
 11
393.7
 20
345.481
 21
345.88
  0
LINE
  8
0
 10
393.7
 11
392.597
 20
345.88
 21
346.128
  0
LINE
  8
0
 10
392.597
 11
392.554
 20
346.128
 21
346.143
  0
LINE
  8
0
 10
392.554
 11
392.291
 20
346.143
 21
346.234
  0
LINE
  8
0
 10
392.291
 11
391.338
 20
346.234
 21
346.568
  0
LINE
  8
0
 10
391.338
 11
390.686
 20
346.568
 21
346.798
  0
LINE
  8
0
 10
390.686
 11
389.704
 20
346.798
 21
347.143
  0
LINE
  8
0
 10
389.704
 11
387.109
 20
347.143
 21
348.394
  0
LINE
  8
0
 10
387.109
 11
386.838
 20
348.394
 21
348.525
  0
LINE
  8
0
 10
386.838
 11
384.169
 20
348.525
 21
350.181
  0
LINE
  8
0
 10
384.169
 11
384.029
 20
350.181
 21
350.268
  0
LINE
  8
0
 10
384.029
 11
381.843
 20
350.268
 21
351.948
  0
LINE
  8
0
 10
381.843
 11
381.304
 20
351.948
 21
352.364
  0
LINE
  8
0
 10
381.304
 11
380.845
 20
352.364
 21
352.791
  0
LINE
  8
0
 10
380.845
 11
379.699
 20
352.791
 21
353.856
  0
LINE
  8
0
 10
379.699
 11
379.16
 20
353.856
 21
354.36
  0
LINE
  8
0
 10
379.16
 11
378.687
 20
354.36
 21
354.802
  0
LINE
  8
0
 10
378.687
 11
378.624
 20
354.802
 21
354.872
  0
LINE
  8
0
 10
378.624
 11
376.383
 20
354.872
 21
357.361
  0
LINE
  8
0
 10
376.383
 11
376.198
 20
357.361
 21
357.568
  0
LINE
  8
0
 10
376.198
 11
374.142
 20
357.568
 21
360.271
  0
LINE
  8
0
 10
374.142
 11
373.855
 20
360.271
 21
360.646
  0
LINE
  8
0
 10
373.855
 11
373.518
 20
360.646
 21
361.168
  0
LINE
  8
0
 10
373.518
 11
372.104
 20
361.168
 21
363.353
  0
LINE
  8
0
 10
372.104
 11
371.93
 20
363.353
 21
363.62
  0
LINE
  8
0
 10
371.93
 11
371.671
 20
363.62
 21
364.018
  0
LINE
  8
0
 10
371.671
 11
371.445
 20
364.018
 21
364.432
  0
LINE
  8
0
 10
371.445
 11
369.809
 20
364.432
 21
367.386
  0
LINE
  8
0
 10
369.809
 11
369.657
 20
367.386
 21
367.661
  0
LINE
  8
0
 10
369.657
 11
368.125
 20
367.661
 21
370.909
  0
LINE
  8
0
 10
368.125
 11
367.821
 20
370.909
 21
371.549
  0
LINE
  8
0
 10
367.821
 11
367.609
 20
371.549
 21
372.085
  0
LINE
  8
0
 10
367.609
 11
366.924
 20
372.085
 21
373.817
  0
LINE
  8
0
 10
366.924
 11
366.617
 20
373.817
 21
374.569
  0
LINE
  8
0
 10
366.617
 11
366.473
 20
374.569
 21
374.918
  0
LINE
  8
0
 10
366.473
 11
366.172
 20
374.918
 21
375.652
  0
LINE
  8
0
 10
366.172
 11
364.795
 20
375.652
 21
379.7
  0
LINE
  8
0
 10
364.795
 11
364.714
 20
379.7
 21
379.934
  0
LINE
  8
0
 10
364.714
 11
363.821
 20
379.934
 21
383.095
  0
LINE
  8
0
 10
363.821
 11
363.455
 20
383.095
 21
384.351
  0
LINE
  8
0
 10
363.455
 11
363.438
 20
384.351
 21
384.432
  0
LINE
  8
0
 10
363.438
 11
363.323
 20
384.432
 21
384.981
  0
LINE
  8
0
 10
363.323
 11
363.148
 20
384.981
 21
385.769
  0
LINE
  8
0
 10
363.148
 11
362.58
 20
385.769
 21
388.139
  0
LINE
  8
0
 10
362.58
 11
362.412
 20
388.139
 21
388.842
  0
LINE
  8
0
 10
362.412
 11
361.702
 20
388.842
 21
392.839
  0
LINE
  8
0
 10
361.702
 11
361.607
 20
392.839
 21
393.332
  0
LINE
  8
0
 10
361.607
 11
361.545
 20
393.332
 21
393.871
  0
LINE
  8
0
 10
361.545
 11
361.214
 20
393.871
 21
396.88
  0
LINE
  8
0
 10
361.214
 11
361.202
 20
396.88
 21
396.967
  0
LINE
  8
0
 10
361.202
 11
361.087
 20
396.967
 21
397.71
  0
LINE
  8
0
 10
361.087
 11
361.093
 20
397.71
 21
398.377
  0
LINE
  8
0
 10
361.093
 11
360.977
 20
398.377
 21
401.439
  0
LINE
  8
0
 10
360.977
 11
360.957
 20
401.439
 21
401.783
  0
LINE
  8
0
 10
0.597
 11
8.054
 20
351.325
 21
356.708
  0
LINE
  8
0
 10
8.054
 11
146.806
 20
356.708
 21
456.858
  0
LINE
  8
0
 10
146.806
 11
326.553
 20
456.858
 21
586.597
  0
LINE
  8
0
 10
326.553
 11
329.752
 20
586.597
 21
582.103
  0
LINE
  8
0
 10
329.752
 11
333.536
 20
582.103
 21
576.788
  0
LINE
  8
0
 10
333.536
 11
337.118
 20
576.788
 21
571.625
  0
LINE
  8
0
 10
337.118
 11
340.684
 20
571.625
 21
566.483
  0
LINE
  8
0
 10
340.684
 11
344.201
 20
566.483
 21
561.276
  0
LINE
  8
0
 10
344.201
 11
347.703
 20
561.276
 21
556.09
  0
LINE
  8
0
 10
347.703
 11
351.153
 20
556.09
 21
550.839
  0
LINE
  8
0
 10
351.153
 11
354.591
 20
550.839
 21
545.609
  0
LINE
  8
0
 10
354.591
 11
357.976
 20
545.609
 21
540.315
  0
LINE
  8
0
 10
357.976
 11
361.347
 20
540.315
 21
535.044
  0
LINE
  8
0
 10
361.347
 11
364.665
 20
535.044
 21
529.709
  0
LINE
  8
0
 10
364.665
 11
367.971
 20
529.709
 21
524.394
  0
LINE
  8
0
 10
367.971
 11
371.222
 20
524.394
 21
519.018
  0
LINE
  8
0
 10
371.222
 11
374.461
 20
519.018
 21
513.663
  0
LINE
  8
0
 10
374.461
 11
377.645
 20
513.663
 21
508.246
  0
LINE
  8
0
 10
377.645
 11
380.816
 20
508.246
 21
502.851
  0
LINE
  8
0
 10
380.816
 11
383.932
 20
502.851
 21
497.395
  0
LINE
  8
0
 10
383.932
 11
387.036
 20
497.395
 21
491.961
  0
LINE
  8
0
 10
387.036
 11
390.083
 20
491.961
 21
486.468
  0
LINE
  8
0
 10
390.083
 11
393.119
 20
486.468
 21
480.994
  0
LINE
  8
0
 10
393.119
 11
396.098
 20
480.994
 21
475.461
  0
LINE
  8
0
 10
396.098
 11
399.064
 20
475.461
 21
469.952
  0
LINE
  8
0
 10
399.064
 11
401.973
 20
469.952
 21
464.383
  0
LINE
  8
0
 10
401.973
 11
404.871
 20
464.383
 21
458.836
  0
LINE
  8
0
 10
404.871
 11
407.71
 20
458.836
 21
453.232
  0
LINE
  8
0
 10
407.71
 11
410.538
 20
453.232
 21
447.648
  0
LINE
  8
0
 10
410.538
 11
413.307
 20
447.648
 21
442.009
  0
LINE
  8
0
 10
413.307
 11
416.065
 20
442.009
 21
436.391
  0
LINE
  8
0
 10
416.065
 11
418.763
 20
436.391
 21
430.717
  0
LINE
  8
0
 10
418.763
 11
421.451
 20
430.717
 21
425.065
  0
LINE
  8
0
 10
421.451
 11
424.079
 20
425.065
 21
419.357
  0
LINE
  8
0
 10
424.079
 11
426.695
 20
419.357
 21
413.673
  0
LINE
  8
0
 10
426.695
 11
429.25
 20
413.673
 21
407.934
  0
LINE
  8
0
 10
429.25
 11
431.796
 20
407.934
 21
402.216
  0
LINE
  8
0
 10
431.796
 11
434.28
 20
402.216
 21
396.444
  0
LINE
  8
0
 10
434.28
 11
436.753
 20
396.444
 21
390.696
  0
LINE
  8
0
 10
436.753
 11
439.165
 20
390.696
 21
384.894
  0
LINE
  8
0
 10
439.165
 11
441.566
 20
384.894
 21
379.115
  0
LINE
  8
0
 10
441.566
 11
443.905
 20
379.115
 21
373.284
  0
LINE
  8
0
 10
443.905
 11
446.234
 20
373.284
 21
367.475
  0
LINE
  8
0
 10
446.234
 11
448.499
 20
367.475
 21
361.615
  0
LINE
  8
0
 10
448.499
 11
450.756
 20
361.615
 21
355.778
  0
LINE
  8
0
 10
450.756
 11
452.948
 20
355.778
 21
349.889
  0
LINE
  8
0
 10
452.948
 11
455.131
 20
349.889
 21
344.025
  0
LINE
  8
0
 10
455.131
 11
457.25
 20
344.025
 21
338.108
  0
LINE
  8
0
 10
457.25
 11
459.359
 20
338.108
 21
332.217
  0
LINE
  8
0
 10
459.359
 11
461.403
 20
332.217
 21
326.277
  0
LINE
  8
0
 10
461.403
 11
463.439
 20
326.277
 21
320.359
  0
LINE
  8
0
 10
463.439
 11
465.409
 20
320.359
 21
314.392
  0
LINE
  8
0
 10
465.409
 11
467.37
 20
314.392
 21
308.45
  0
LINE
  8
0
 10
467.37
 11
469.258
 20
308.45
 21
302.483
  0
LINE
  8
0
 10
469.258
 11
471.153
 20
302.483
 21
296.492
  0
LINE
  8
0
 10
471.153
 11
472.965
 20
296.492
 21
290.502
  0
LINE
  8
0
 10
472.965
 11
474.785
 20
290.502
 21
284.489
  0
LINE
  8
0
 10
474.785
 11
476.522
 20
284.489
 21
278.477
  0
LINE
  8
0
 10
476.522
 11
478.267
 20
278.477
 21
272.441
  0
LINE
  8
0
 10
478.267
 11
479.929
 20
272.441
 21
266.408
  0
LINE
  8
0
 10
479.929
 11
481.598
 20
266.408
 21
260.35
  0
LINE
  8
0
 10
481.598
 11
483.185
 20
260.35
 21
254.296
  0
LINE
  8
0
 10
483.185
 11
484.778
 20
254.296
 21
248.219
  0
LINE
  8
0
 10
484.778
 11
486.288
 20
248.219
 21
242.145
  0
LINE
  8
0
 10
486.288
 11
487.805
 20
242.145
 21
236.048
  0
LINE
  8
0
 10
487.805
 11
489.24
 20
236.048
 21
229.957
  0
LINE
  8
0
 10
489.24
 11
490.681
 20
229.957
 21
223.841
  0
LINE
  8
0
 10
490.681
 11
492.039
 20
223.841
 21
217.733
  0
LINE
  8
0
 10
492.039
 11
493.403
 20
217.733
 21
211.599
  0
LINE
  8
0
 10
493.403
 11
494.685
 20
211.599
 21
205.473
  0
LINE
  8
0
 10
494.685
 11
495.972
 20
205.473
 21
199.324
  0
LINE
  8
0
 10
495.972
 11
497.177
 20
199.324
 21
193.184
  0
LINE
  8
0
 10
497.177
 11
498.387
 20
193.184
 21
187.018
  0
LINE
  8
0
 10
498.387
 11
499.516
 20
187.018
 21
180.861
  0
LINE
  8
0
 10
499.516
 11
500.649
 20
180.861
 21
174.682
  0
LINE
  8
0
 10
500.649
 11
501.7
 20
174.682
 21
168.513
  0
LINE
  8
0
 10
501.7
 11
502.756
 20
168.513
 21
162.319
  0
LINE
  8
0
 10
502.756
 11
503.73
 20
162.319
 21
156.136
  0
LINE
  8
0
 10
503.73
 11
504.708
 20
156.136
 21
149.931
  0
LINE
  8
0
 10
504.708
 11
505.605
 20
149.931
 21
143.737
  0
LINE
  8
0
 10
505.605
 11
506.505
 20
143.737
 21
137.519
  0
LINE
  8
0
 10
506.505
 11
507.324
 20
137.519
 21
131.316
  0
LINE
  8
0
 10
507.324
 11
508.147
 20
131.316
 21
125.086
  0
LINE
  8
0
 10
508.147
 11
508.889
 20
125.086
 21
118.871
  0
LINE
  8
0
 10
508.889
 11
509.633
 20
118.871
 21
112.633
  0
LINE
  8
0
 10
509.633
 11
510.297
 20
112.633
 21
106.411
  0
LINE
  8
0
 10
510.297
 11
510.964
 20
106.411
 21
100.163
  0
LINE
  8
0
 10
510.964
 11
511.55
 20
100.163
 21
93.932
  0
LINE
  8
0
 10
511.55
 11
512.138
 20
93.932
 21
87.677
  0
LINE
  8
0
 10
512.138
 11
512.646
 20
87.677
 21
81.439
  0
LINE
  8
0
 10
512.646
 11
513.156
 20
81.439
 21
75.177
  0
LINE
  8
0
 10
513.156
 11
513.586
 20
75.177
 21
68.933
  0
LINE
  8
0
 10
513.586
 11
514.018
 20
68.933
 21
62.665
  0
LINE
  8
0
 10
514.018
 11
514.37
 20
62.665
 21
56.418
  0
LINE
  8
0
 10
514.37
 11
514.723
 20
56.418
 21
50.144
  0
LINE
  8
0
 10
514.723
 11
514.997
 20
50.144
 21
43.892
  0
LINE
  8
0
 10
514.997
 11
515.272
 20
43.892
 21
37.615
  0
LINE
  8
0
 10
515.272
 11
515.468
 20
37.615
 21
31.36
  0
LINE
  8
0
 10
515.468
 11
515.664
 20
31.36
 21
25.08
  0
LINE
  8
0
 10
515.664
 11
515.781
 20
25.08
 21
18.824
  0
LINE
  8
0
 10
515.781
 11
515.899
 20
18.824
 21
12.541
  0
LINE
  8
0
 10
515.899
 11
515.935
 20
12.541
 21
6.957
  0
LINE
  8
0
 10
515.935
 11
515.977
 20
6.957
 21
0.5
  0
LINE
  8
0
 10
515.977
 11
113.982
 20
0.5
 21
0.5
  0
LINE
  8
0
 10
113.982
 11
113.957
 20
0.5
 21
4.261
  0
LINE
  8
0
 10
113.957
 11
113.936
 20
4.261
 21
7.514
  0
LINE
  8
0
 10
113.936
 11
113.865
 20
7.514
 21
11.259
  0
LINE
  8
0
 10
113.865
 11
113.795
 20
11.259
 21
15.028
  0
LINE
  8
0
 10
113.795
 11
113.677
 20
15.028
 21
18.795
  0
LINE
  8
0
 10
113.677
 11
113.56
 20
18.795
 21
22.539
  0
LINE
  8
0
 10
113.56
 11
113.395
 20
22.539
 21
26.305
  0
LINE
  8
0
 10
113.395
 11
113.231
 20
26.305
 21
30.046
  0
LINE
  8
0
 10
113.231
 11
113.019
 20
30.046
 21
33.81
  0
LINE
  8
0
 10
113.019
 11
112.808
 20
33.81
 21
37.549
  0
LINE
  8
0
 10
112.808
 11
112.549
 20
37.549
 21
41.31
  0
LINE
  8
0
 10
112.549
 11
112.292
 20
41.31
 21
45.046
  0
LINE
  8
0
 10
112.292
 11
111.986
 20
45.046
 21
48.804
  0
LINE
  8
0
 10
111.986
 11
111.682
 20
48.804
 21
52.536
  0
LINE
  8
0
 10
111.682
 11
111.329
 20
52.536
 21
56.289
  0
LINE
  8
0
 10
111.329
 11
110.978
 20
56.289
 21
60.017
  0
LINE
  8
0
 10
110.978
 11
110.578
 20
60.017
 21
63.766
  0
LINE
  8
0
 10
110.578
 11
110.181
 20
63.766
 21
67.49
  0
LINE
  8
0
 10
110.181
 11
109.734
 20
67.49
 21
71.233
  0
LINE
  8
0
 10
109.734
 11
109.29
 20
71.233
 21
74.951
  0
LINE
  8
0
 10
109.29
 11
108.797
 20
74.951
 21
78.689
  0
LINE
  8
0
 10
108.797
 11
108.307
 20
78.689
 21
82.401
  0
LINE
  8
0
 10
108.307
 11
107.766
 20
82.401
 21
86.132
  0
LINE
  8
0
 10
107.766
 11
107.23
 20
86.132
 21
89.838
  0
LINE
  8
0
 10
107.23
 11
106.643
 20
89.838
 21
93.562
  0
LINE
  8
0
 10
106.643
 11
106.06
 20
93.562
 21
97.261
  0
LINE
  8
0
 10
106.06
 11
105.427
 20
97.261
 21
100.978
  0
LINE
  8
0
 10
105.427
 11
104.798
 20
100.978
 21
104.669
  0
LINE
  8
0
 10
104.798
 11
104.118
 20
104.669
 21
108.377
  0
LINE
  8
0
 10
104.118
 11
103.443
 20
108.377
 21
112.061
  0
LINE
  8
0
 10
103.443
 11
102.717
 20
112.061
 21
115.76
  0
LINE
  8
0
 10
102.717
 11
101.995
 20
115.76
 21
119.435
  0
LINE
  8
0
 10
101.995
 11
101.223
 20
119.435
 21
123.124
  0
LINE
  8
0
 10
101.223
 11
100.456
 20
123.124
 21
126.79
  0
LINE
  8
0
 10
100.456
 11
99.637
 20
126.79
 21
130.47
  0
LINE
  8
0
 10
99.637
 11
98.825
 20
130.47
 21
134.125
  0
LINE
  8
0
 10
98.825
 11
97.96
 20
134.125
 21
137.795
  0
LINE
  8
0
 10
97.96
 11
97.102
 20
137.795
 21
141.44
  0
LINE
  8
0
 10
97.102
 11
96.191
 20
141.44
 21
145.099
  0
LINE
  8
0
 10
96.191
 11
95.288
 20
145.099
 21
148.732
  0
LINE
  8
0
 10
95.288
 11
94.332
 20
148.732
 21
152.379
  0
LINE
  8
0
 10
94.332
 11
93.382
 20
152.379
 21
156.001
  0
LINE
  8
0
 10
93.382
 11
92.381
 20
156.001
 21
159.635
  0
LINE
  8
0
 10
92.381
 11
91.386
 20
159.635
 21
163.246
  0
LINE
  8
0
 10
91.386
 11
90.34
 20
163.246
 21
166.867
  0
LINE
  8
0
 10
90.34
 11
89.3
 20
166.867
 21
170.465
  0
LINE
  8
0
 10
89.3
 11
88.208
 20
170.465
 21
174.073
  0
LINE
  8
0
 10
88.208
 11
87.123
 20
174.073
 21
177.658
  0
LINE
  8
0
 10
87.123
 11
85.986
 20
177.658
 21
181.252
  0
LINE
  8
0
 10
85.986
 11
84.857
 20
181.252
 21
184.822
  0
LINE
  8
0
 10
84.857
 11
83.676
 20
184.822
 21
188.402
  0
LINE
  8
0
 10
83.676
 11
82.502
 20
188.402
 21
191.958
  0
LINE
  8
0
 10
82.502
 11
81.275
 20
191.958
 21
195.523
  0
LINE
  8
0
 10
81.275
 11
80.057
 20
195.523
 21
199.064
  0
LINE
  8
0
 10
80.057
 11
78.786
 20
199.064
 21
202.613
  0
LINE
  8
0
 10
78.786
 11
77.524
 20
202.613
 21
206.139
  0
LINE
  8
0
 10
77.524
 11
76.208
 20
206.139
 21
209.672
  0
LINE
  8
0
 10
76.208
 11
74.902
 20
209.672
 21
213.181
  0
LINE
  8
0
 10
74.902
 11
73.543
 20
213.181
 21
216.698
  0
LINE
  8
0
 10
73.543
 11
72.192
 20
216.698
 21
220.191
  0
LINE
  8
0
 10
72.192
 11
70.789
 20
220.191
 21
223.69
  0
LINE
  8
0
 10
70.789
 11
69.395
 20
223.69
 21
227.165
  0
LINE
  8
0
 10
69.395
 11
67.949
 20
227.165
 21
230.647
  0
LINE
  8
0
 10
67.949
 11
66.512
 20
230.647
 21
234.105
  0
LINE
  8
0
 10
66.512
 11
65.022
 20
234.105
 21
237.567
  0
LINE
  8
0
 10
65.022
 11
63.541
 20
237.567
 21
241.007
  0
LINE
  8
0
 10
63.541
 11
62.008
 20
241.007
 21
244.451
  0
LINE
  8
0
 10
62.008
 11
60.485
 20
244.451
 21
247.872
  0
LINE
  8
0
 10
60.485
 11
58.908
 20
247.872
 21
251.297
  0
LINE
  8
0
 10
58.908
 11
57.343
 20
251.297
 21
254.698
  0
LINE
  8
0
 10
57.343
 11
55.723
 20
254.698
 21
258.103
  0
LINE
  8
0
 10
55.723
 11
54.115
 20
258.103
 21
261.485
  0
LINE
  8
0
 10
54.115
 11
52.454
 20
261.485
 21
264.869
  0
LINE
  8
0
 10
52.454
 11
50.803
 20
264.869
 21
268.23
  0
LINE
  8
0
 10
50.803
 11
49.1
 20
268.23
 21
271.593
  0
LINE
  8
0
 10
49.1
 11
47.408
 20
271.593
 21
274.934
  0
LINE
  8
0
 10
47.408
 11
45.662
 20
274.934
 21
278.275
  0
LINE
  8
0
 10
45.662
 11
43.928
 20
278.275
 21
281.594
  0
LINE
  8
0
 10
43.928
 11
42.141
 20
281.594
 21
284.914
  0
LINE
  8
0
 10
42.141
 11
40.366
 20
284.914
 21
288.211
  0
LINE
  8
0
 10
40.366
 11
38.537
 20
288.211
 21
291.507
  0
LINE
  8
0
 10
38.537
 11
36.721
 20
291.507
 21
294.782
  0
LINE
  8
0
 10
36.721
 11
34.851
 20
294.782
 21
298.056
  0
LINE
  8
0
 10
34.851
 11
32.994
 20
298.056
 21
301.308
  0
LINE
  8
0
 10
32.994
 11
31.083
 20
301.308
 21
304.558
  0
LINE
  8
0
 10
31.083
 11
29.186
 20
304.558
 21
307.786
  0
LINE
  8
0
 10
29.186
 11
27.235
 20
307.786
 21
311.012
  0
LINE
  8
0
 10
27.235
 11
25.297
 20
311.012
 21
314.216
  0
LINE
  8
0
 10
25.297
 11
23.306
 20
314.216
 21
317.418
  0
LINE
  8
0
 10
23.306
 11
21.328
 20
317.418
 21
320.597
  0
LINE
  8
0
 10
21.328
 11
19.297
 20
320.597
 21
323.773
  0
LINE
  8
0
 10
19.297
 11
17.28
 20
323.773
 21
326.928
  0
LINE
  8
0
 10
17.28
 11
15.209
 20
326.928
 21
330.078
  0
LINE
  8
0
 10
15.209
 11
13.152
 20
330.078
 21
333.208
  0
LINE
  8
0
 10
13.152
 11
11.043
 20
333.208
 21
336.332
  0
LINE
  8
0
 10
11.043
 11
8.947
 20
336.332
 21
339.436
  0
LINE
  8
0
 10
8.947
 11
6.799
 20
339.436
 21
342.533
  0
LINE
  8
0
 10
6.799
 11
4.664
 20
342.533
 21
345.61
  0
LINE
  8
0
 10
4.664
 11
2.462
 20
345.61
 21
348.704
  0
LINE
  8
0
 10
2.462
 11
0.597
 20
348.704
 21
351.325
  0
ENDSEC
  0
SECTION
  2
OBJECTS
  0
DICTIONARY
  0
ENDSEC
  0
EOF
