  0
SECTION
  2
BLOCKS
  0
ENDSEC
  0
SECTION
  2
ENTITIES
  0
LINE
  8
0
 10
2.612
 11
7.234
 20
259.897
 21
267.644
  0
LINE
  8
0
 10
7.234
 11
47.12
 20
267.644
 21
334.511
  0
LINE
  8
0
 10
47.12
 11
158.419
 20
334.511
 21
521.095
  0
LINE
  8
0
 10
158.419
 11
161.146
 20
521.095
 21
519.428
  0
LINE
  8
0
 10
161.146
 11
168.693
 20
519.428
 21
514.816
  0
LINE
  8
0
 10
168.693
 11
176.104
 20
514.816
 21
510.078
  0
LINE
  8
0
 10
176.104
 11
179.259
 20
510.078
 21
508.06
  0
LINE
  8
0
 10
179.259
 11
186.571
 20
508.06
 21
503.17
  0
LINE
  8
0
 10
186.571
 11
189.684
 20
503.17
 21
501.088
  0
LINE
  8
0
 10
189.684
 11
196.892
 20
501.088
 21
496.048
  0
LINE
  8
0
 10
196.892
 11
199.962
 20
496.048
 21
493.902
  0
LINE
  8
0
 10
199.962
 11
207.065
 20
493.902
 21
488.714
  0
LINE
  8
0
 10
207.065
 11
210.089
 20
488.714
 21
486.506
  0
LINE
  8
0
 10
210.089
 11
217.083
 20
486.506
 21
481.172
  0
LINE
  8
0
 10
217.083
 11
220.062
 20
481.172
 21
478.901
  0
LINE
  8
0
 10
220.062
 11
226.945
 20
478.901
 21
473.424
  0
LINE
  8
0
 10
226.945
 11
229.875
 20
473.424
 21
471.093
  0
LINE
  8
0
 10
229.875
 11
236.644
 20
471.093
 21
465.474
  0
LINE
  8
0
 10
236.644
 11
239.525
 20
465.474
 21
463.083
  0
LINE
  8
0
 10
239.525
 11
246.176
 20
463.083
 21
457.326
  0
LINE
  8
0
 10
246.176
 11
249.007
 20
457.326
 21
454.875
  0
LINE
  8
0
 10
249.007
 11
255.537
 20
454.875
 21
448.983
  0
LINE
  8
0
 10
255.537
 11
258.318
 20
448.983
 21
446.474
  0
LINE
  8
0
 10
258.318
 11
264.726
 20
446.474
 21
440.447
  0
LINE
  8
0
 10
264.726
 11
267.453
 20
440.447
 21
437.882
  0
LINE
  8
0
 10
267.453
 11
273.735
 20
437.882
 21
431.725
  0
LINE
  8
0
 10
273.735
 11
276.409
 20
431.725
 21
429.103
  0
LINE
  8
0
 10
276.409
 11
282.562
 20
429.103
 21
422.817
  0
LINE
  8
0
 10
282.562
 11
285.182
 20
422.817
 21
420.141
  0
LINE
  8
0
 10
285.182
 11
291.204
 20
420.141
 21
413.729
  0
LINE
  8
0
 10
291.204
 11
293.767
 20
413.729
 21
410.999
  0
LINE
  8
0
 10
293.767
 11
299.655
 20
410.999
 21
404.465
  0
LINE
  8
0
 10
299.655
 11
302.162
 20
404.465
 21
401.683
  0
LINE
  8
0
 10
302.162
 11
307.914
 20
401.683
 21
395.027
  0
LINE
  8
0
 10
307.914
 11
310.363
 20
395.027
 21
392.194
  0
LINE
  8
0
 10
310.363
 11
315.976
 20
392.194
 21
385.422
  0
LINE
  8
0
 10
315.976
 11
318.366
 20
385.422
 21
382.539
  0
LINE
  8
0
 10
318.366
 11
323.838
 20
382.539
 21
375.652
  0
LINE
  8
0
 10
323.838
 11
326.167
 20
375.652
 21
372.72
  0
LINE
  8
0
 10
326.167
 11
331.496
 20
372.72
 21
365.721
  0
LINE
  8
0
 10
331.496
 11
333.765
 20
365.721
 21
362.742
  0
LINE
  8
0
 10
333.765
 11
338.948
 20
362.742
 21
355.635
  0
LINE
  8
0
 10
338.948
 11
341.154
 20
355.635
 21
352.609
  0
LINE
  8
0
 10
341.154
 11
346.189
 20
352.609
 21
345.397
  0
LINE
  8
0
 10
346.189
 11
348.333
 20
345.397
 21
342.326
  0
LINE
  8
0
 10
348.333
 11
353.218
 20
342.326
 21
335.011
  0
LINE
  8
0
 10
353.218
 11
355.297
 20
335.011
 21
331.897
  0
LINE
  8
0
 10
355.297
 11
360.03
 20
331.897
 21
324.482
  0
LINE
  8
0
 10
360.03
 11
362.045
 20
324.482
 21
321.326
  0
LINE
  8
0
 10
362.045
 11
366.623
 20
321.326
 21
313.815
  0
LINE
  8
0
 10
366.623
 11
368.573
 20
313.815
 21
310.617
  0
LINE
  8
0
 10
368.573
 11
372.995
 20
310.617
 21
303.014
  0
LINE
  8
0
 10
372.995
 11
374.878
 20
303.014
 21
299.777
  0
LINE
  8
0
 10
374.878
 11
376.694
 20
299.777
 21
296.501
  0
LINE
  8
0
 10
376.694
 11
380.958
 20
296.501
 21
288.808
  0
LINE
  8
0
 10
380.958
 11
382.706
 20
288.808
 21
285.496
  0
LINE
  8
0
 10
382.706
 11
386.81
 20
285.496
 21
277.716
  0
LINE
  8
0
 10
386.81
 11
388.489
 20
277.716
 21
274.369
  0
LINE
  8
0
 10
388.489
 11
392.432
 20
274.369
 21
266.506
  0
LINE
  8
0
 10
392.432
 11
394.041
 20
266.506
 21
263.125
  0
LINE
  8
0
 10
394.041
 11
397.821
 20
263.125
 21
255.182
  0
LINE
  8
0
 10
397.821
 11
399.36
 20
255.182
 21
251.767
  0
LINE
  8
0
 10
399.36
 11
402.975
 20
251.767
 21
243.749
  0
LINE
  8
0
 10
402.975
 11
404.443
 20
243.749
 21
240.304
  0
LINE
  8
0
 10
404.443
 11
407.891
 20
240.304
 21
232.212
  0
LINE
  8
0
 10
407.891
 11
409.288
 20
232.212
 21
228.737
  0
LINE
  8
0
 10
409.288
 11
412.569
 20
228.737
 21
220.575
  0
LINE
  8
0
 10
412.569
 11
413.893
 20
220.575
 21
217.073
  0
LINE
  8
0
 10
413.893
 11
417.005
 20
217.073
 21
208.845
  0
LINE
  8
0
 10
417.005
 11
418.257
 20
208.845
 21
205.316
  0
LINE
  8
0
 10
418.257
 11
421.197
 20
205.316
 21
197.026
  0
LINE
  8
0
 10
421.197
 11
422.376
 20
197.026
 21
193.472
  0
LINE
  8
0
 10
422.376
 11
425.145
 20
193.472
 21
185.122
  0
LINE
  8
0
 10
425.145
 11
426.25
 20
185.122
 21
181.543
  0
LINE
  8
0
 10
426.25
 11
428.845
 20
181.543
 21
173.14
  0
LINE
  8
0
 10
428.845
 11
429.876
 20
173.14
 21
169.54
  0
LINE
  8
0
 10
429.876
 11
432.298
 20
169.54
 21
161.083
  0
LINE
  8
0
 10
432.298
 11
433.254
 20
161.083
 21
157.462
  0
LINE
  8
0
 10
433.254
 11
435.501
 20
157.462
 21
148.958
  0
LINE
  8
0
 10
435.501
 11
436.382
 20
148.958
 21
145.318
  0
LINE
  8
0
 10
436.382
 11
438.452
 20
145.318
 21
136.769
  0
LINE
  8
0
 10
438.452
 11
439.258
 20
136.769
 21
133.113
  0
LINE
  8
0
 10
439.258
 11
441.151
 20
133.113
 21
124.522
  0
LINE
  8
0
 10
441.151
 11
441.882
 20
124.522
 21
120.849
  0
LINE
  8
0
 10
441.882
 11
443.597
 20
120.849
 21
112.222
  0
LINE
  8
0
 10
443.597
 11
444.251
 20
112.222
 21
108.535
  0
LINE
  8
0
 10
444.251
 11
445.788
 20
108.535
 21
99.874
  0
LINE
  8
0
 10
445.788
 11
446.366
 20
99.874
 21
96.174
  0
LINE
  8
0
 10
446.366
 11
447.723
 20
96.174
 21
87.483
  0
LINE
  8
0
 10
447.723
 11
448.224
 20
87.483
 21
83.772
  0
LINE
  8
0
 10
448.224
 11
449.402
 20
83.772
 21
75.055
  0
LINE
  8
0
 10
449.402
 11
449.827
 20
75.055
 21
71.334
  0
LINE
  8
0
 10
449.827
 11
450.824
 20
71.334
 21
62.595
  0
LINE
  8
0
 10
450.824
 11
451.172
 20
62.595
 21
58.866
  0
LINE
  8
0
 10
451.172
 11
451.988
 20
58.866
 21
50.108
  0
LINE
  8
0
 10
451.988
 11
452.259
 20
50.108
 21
46.372
  0
LINE
  8
0
 10
452.259
 11
452.894
 20
46.372
 21
37.6
  0
LINE
  8
0
 10
452.894
 11
453.087
 20
37.6
 21
33.86
  0
LINE
  8
0
 10
453.087
 11
453.542
 20
33.86
 21
25.075
  0
LINE
  8
0
 10
453.542
 11
453.658
 20
25.075
 21
21.332
  0
LINE
  8
0
 10
453.658
 11
453.93
 20
21.332
 21
12.54
  0
LINE
  8
0
 10
453.93
 11
453.967
 20
12.54
 21
9.102
  0
LINE
  8
0
 10
453.967
 11
454.059
 20
9.102
 21
0.5
  0
LINE
  8
0
 10
454.059
 11
149.921
 20
0.5
 21
0.5
  0
LINE
  8
0
 10
149.921
 11
149.875
 20
0.5
 21
4.62
  0
LINE
  8
0
 10
149.875
 11
149.857
 20
4.62
 21
6.258
  0
LINE
  8
0
 10
149.857
 11
149.799
 20
6.258
 21
8.116
  0
LINE
  8
0
 10
149.799
 11
149.436
 20
8.116
 21
16.905
  0
LINE
  8
0
 10
149.436
 11
149.34
 20
16.905
 21
18.762
  0
LINE
  8
0
 10
149.34
 11
149.022
 20
18.762
 21
23.149
  0
LINE
  8
0
 10
149.022
 11
148.888
 20
23.149
 21
25.004
  0
LINE
  8
0
 10
148.888
 11
148.48
 20
25.004
 21
29.383
  0
LINE
  8
0
 10
148.48
 11
148.307
 20
29.383
 21
31.235
  0
LINE
  8
0
 10
148.307
 11
147.808
 20
31.235
 21
35.604
  0
LINE
  8
0
 10
147.808
 11
147.597
 20
35.604
 21
37.452
  0
LINE
  8
0
 10
147.597
 11
147.009
 20
37.452
 21
41.81
  0
LINE
  8
0
 10
147.009
 11
146.76
 20
41.81
 21
43.654
  0
LINE
  8
0
 10
146.76
 11
146.081
 20
43.654
 21
47.999
  0
LINE
  8
0
 10
146.081
 11
145.794
 20
47.999
 21
49.837
  0
LINE
  8
0
 10
145.794
 11
145.026
 20
49.837
 21
54.167
  0
LINE
  8
0
 10
145.026
 11
144.701
 20
54.167
 21
55.999
  0
LINE
  8
0
 10
144.701
 11
143.843
 20
55.999
 21
60.313
  0
LINE
  8
0
 10
143.843
 11
143.48
 20
60.313
 21
62.136
  0
LINE
  8
0
 10
143.48
 11
142.534
 20
62.136
 21
66.431
  0
LINE
  8
0
 10
142.534
 11
142.133
 20
66.431
 21
68.248
  0
LINE
  8
0
 10
142.133
 11
141.098
 20
68.248
 21
72.522
  0
LINE
  8
0
 10
141.098
 11
140.661
 20
72.522
 21
74.33
  0
LINE
  8
0
 10
140.661
 11
139.537
 20
74.33
 21
78.582
  0
LINE
  8
0
 10
139.537
 11
139.062
 20
78.582
 21
80.38
  0
LINE
  8
0
 10
139.062
 11
137.852
 20
80.38
 21
84.608
  0
LINE
  8
0
 10
137.852
 11
137.34
 20
84.608
 21
86.396
  0
LINE
  8
0
 10
137.34
 11
136.042
 20
86.396
 21
90.599
  0
LINE
  8
0
 10
136.042
 11
135.493
 20
90.599
 21
92.376
  0
LINE
  8
0
 10
135.493
 11
134.109
 20
92.376
 21
96.55
  0
LINE
  8
0
 10
134.109
 11
133.523
 20
96.55
 21
98.315
  0
LINE
  8
0
 10
133.523
 11
132.053
 20
98.315
 21
102.461
  0
LINE
  8
0
 10
132.053
 11
131.431
 20
102.461
 21
104.213
  0
LINE
  8
0
 10
131.431
 11
129.876
 20
104.213
 21
108.327
  0
LINE
  8
0
 10
129.876
 11
129.218
 20
108.327
 21
110.067
  0
LINE
  8
0
 10
129.218
 11
127.577
 20
110.067
 21
114.147
  0
LINE
  8
0
 10
127.577
 11
126.884
 20
114.147
 21
115.873
  0
LINE
  8
0
 10
126.884
 11
125.159
 20
115.873
 21
119.919
  0
LINE
  8
0
 10
125.159
 11
124.43
 20
119.919
 21
121.63
  0
LINE
  8
0
 10
124.43
 11
122.623
 20
121.63
 21
125.64
  0
LINE
  8
0
 10
122.623
 11
121.859
 20
125.64
 21
127.335
  0
LINE
  8
0
 10
121.859
 11
119.969
 20
127.335
 21
131.307
  0
LINE
  8
0
 10
119.969
 11
119.169
 20
131.307
 21
132.986
  0
LINE
  8
0
 10
119.169
 11
117.198
 20
132.986
 21
136.917
  0
LINE
  8
0
 10
117.198
 11
116.364
 20
136.917
 21
138.58
  0
LINE
  8
0
 10
116.364
 11
114.312
 20
138.58
 21
142.47
  0
LINE
  8
0
 10
114.312
 11
113.444
 20
142.47
 21
144.115
  0
LINE
  8
0
 10
113.444
 11
111.312
 20
144.115
 21
147.961
  0
LINE
  8
0
 10
111.312
 11
110.41
 20
147.961
 21
149.588
  0
LINE
  8
0
 10
110.41
 11
108.199
 20
149.588
 21
153.39
  0
LINE
  8
0
 10
108.199
 11
107.264
 20
153.39
 21
154.998
  0
LINE
  8
0
 10
107.264
 11
104.975
 20
154.998
 21
158.753
  0
LINE
  8
0
 10
104.975
 11
104.006
 20
158.753
 21
160.341
  0
LINE
  8
0
 10
104.006
 11
101.64
 20
160.341
 21
164.048
  0
LINE
  8
0
 10
101.64
 11
100.639
 20
164.048
 21
165.616
  0
LINE
  8
0
 10
100.639
 11
98.197
 20
165.616
 21
169.273
  0
LINE
  8
0
 10
98.197
 11
97.164
 20
169.273
 21
170.82
  0
LINE
  8
0
 10
97.164
 11
94.646
 20
170.82
 21
174.427
  0
LINE
  8
0
 10
94.646
 11
93.582
 20
174.427
 21
175.951
  0
LINE
  8
0
 10
93.582
 11
90.99
 20
175.951
 21
179.505
  0
LINE
  8
0
 10
90.99
 11
89.895
 20
179.505
 21
181.008
  0
LINE
  8
0
 10
89.895
 11
87.23
 20
181.008
 21
184.507
  0
LINE
  8
0
 10
87.23
 11
86.104
 20
184.507
 21
185.986
  0
LINE
  8
0
 10
86.104
 11
83.367
 20
185.986
 21
189.43
  0
LINE
  8
0
 10
83.367
 11
82.211
 20
189.43
 21
190.886
  0
LINE
  8
0
 10
82.211
 11
79.404
 20
190.886
 21
194.272
  0
LINE
  8
0
 10
79.404
 11
78.217
 20
194.272
 21
195.704
  0
LINE
  8
0
 10
78.217
 11
75.341
 20
195.704
 21
199.032
  0
LINE
  8
0
 10
75.341
 11
74.125
 20
199.032
 21
200.439
  0
LINE
  8
0
 10
74.125
 11
71.181
 20
200.439
 21
203.706
  0
LINE
  8
0
 10
71.181
 11
69.936
 20
203.706
 21
205.088
  0
LINE
  8
0
 10
69.936
 11
66.925
 20
205.088
 21
208.294
  0
LINE
  8
0
 10
66.925
 11
65.652
 20
208.294
 21
209.649
  0
LINE
  8
0
 10
65.652
 11
62.575
 20
209.649
 21
212.793
  0
LINE
  8
0
 10
62.575
 11
61.274
 20
212.793
 21
214.121
  0
LINE
  8
0
 10
61.274
 11
58.134
 20
214.121
 21
217.2
  0
LINE
  8
0
 10
58.134
 11
56.805
 20
217.2
 21
218.502
  0
LINE
  8
0
 10
56.805
 11
53.601
 20
218.502
 21
221.516
  0
LINE
  8
0
 10
53.601
 11
52.247
 20
221.516
 21
222.79
  0
LINE
  8
0
 10
52.247
 11
48.982
 20
222.79
 21
225.736
  0
LINE
  8
0
 10
48.982
 11
47.601
 20
225.736
 21
226.982
  0
LINE
  8
0
 10
47.601
 11
44.275
 20
226.982
 21
229.86
  0
LINE
  8
0
 10
44.275
 11
42.869
 20
229.86
 21
231.077
  0
LINE
  8
0
 10
42.869
 11
39.485
 20
231.077
 21
233.886
  0
LINE
  8
0
 10
39.485
 11
38.054
 20
233.886
 21
235.074
  0
LINE
  8
0
 10
38.054
 11
34.612
 20
235.074
 21
237.813
  0
LINE
  8
0
 10
34.612
 11
33.157
 20
237.813
 21
238.971
  0
LINE
  8
0
 10
33.157
 11
29.66
 20
238.971
 21
241.638
  0
LINE
  8
0
 10
29.66
 11
28.181
 20
241.638
 21
242.765
  0
LINE
  8
0
 10
28.181
 11
24.629
 20
242.765
 21
245.359
  0
LINE
  8
0
 10
24.629
 11
23.127
 20
245.359
 21
246.456
  0
LINE
  8
0
 10
23.127
 11
19.522
 20
246.456
 21
248.977
  0
LINE
  8
0
 10
19.522
 11
17.998
 20
248.977
 21
250.042
  0
LINE
  8
0
 10
17.998
 11
14.343
 20
250.042
 21
252.487
  0
LINE
  8
0
 10
14.343
 11
12.797
 20
252.487
 21
253.521
  0
LINE
  8
0
 10
12.797
 11
9.091
 20
253.521
 21
255.89
  0
LINE
  8
0
 10
9.091
 11
7.524
 20
255.89
 21
256.892
  0
LINE
  8
0
 10
7.524
 11
3.916
 20
256.892
 21
259.099
  0
LINE
  8
0
 10
3.916
 11
2.612
 20
259.099
 21
259.897
  0
LINE
  8
0
 10
249.401
 11
249.456
 20
365.314
 21
365.485
  0
LINE
  8
0
 10
249.456
 11
250.32
 20
365.485
 21
367.678
  0
LINE
  8
0
 10
250.32
 11
250.333
 20
367.678
 21
367.731
  0
LINE
  8
0
 10
250.333
 11
250.44
 20
367.731
 21
367.789
  0
LINE
  8
0
 10
250.44
 11
250.626
 20
367.789
 21
367.894
  0
LINE
  8
0
 10
250.626
 11
252.672
 20
367.894
 21
369.137
  0
LINE
  8
0
 10
252.672
 11
252.997
 20
369.137
 21
369.159
  0
LINE
  8
0
 10
252.997
 11
256.256
 20
369.159
 21
369.599
  0
LINE
  8
0
 10
256.256
 11
256.416
 20
369.599
 21
369.581
  0
LINE
  8
0
 10
256.416
 11
260.675
 20
369.581
 21
369.36
  0
LINE
  8
0
 10
260.675
 11
261.212
 20
369.36
 21
369.262
  0
LINE
  8
0
 10
261.212
 11
265.58
 20
369.262
 21
368.624
  0
LINE
  8
0
 10
265.58
 11
265.854
 20
368.624
 21
368.555
  0
LINE
  8
0
 10
265.854
 11
266.583
 20
368.555
 21
368.389
  0
LINE
  8
0
 10
266.583
 11
270.713
 20
368.389
 21
367.527
  0
LINE
  8
0
 10
270.713
 11
270.896
 20
367.527
 21
367.477
  0
LINE
  8
0
 10
270.896
 11
275.869
 20
367.477
 21
366.173
  0
LINE
  8
0
 10
275.869
 11
276.502
 20
366.173
 21
365.969
  0
LINE
  8
0
 10
276.502
 11
276.618
 20
365.969
 21
365.934
  0
LINE
  8
0
 10
276.618
 11
280.946
 20
365.934
 21
364.594
  0
LINE
  8
0
 10
280.946
 11
281.531
 20
364.594
 21
364.379
  0
LINE
  8
0
 10
281.531
 11
285.851
 20
364.379
 21
362.822
  0
LINE
  8
0
 10
285.851
 11
285.998
 20
362.822
 21
362.76
  0
LINE
  8
0
 10
285.998
 11
290.511
 20
362.76
 21
360.876
  0
LINE
  8
0
 10
290.511
 11
290.92
 20
360.876
 21
360.676
  0
LINE
  8
0
 10
290.92
 11
291.507
 20
360.676
 21
360.393
  0
LINE
  8
0
 10
291.507
 11
294.88
 20
360.393
 21
358.767
  0
LINE
  8
0
 10
294.88
 11
295.114
 20
358.767
 21
358.636
  0
LINE
  8
0
 10
295.114
 11
298.907
 20
358.636
 21
356.512
  0
LINE
  8
0
 10
298.907
 11
299.152
 20
356.512
 21
356.352
  0
LINE
  8
0
 10
299.152
 11
302.558
 20
356.352
 21
354.125
  0
LINE
  8
0
 10
302.558
 11
302.65
 20
354.125
 21
354.055
  0
LINE
  8
0
 10
302.65
 11
303.282
 20
354.055
 21
353.568
  0
LINE
  8
0
 10
303.282
 11
305.805
 20
353.568
 21
351.621
  0
LINE
  8
0
 10
305.805
 11
305.927
 20
351.621
 21
351.509
  0
LINE
  8
0
 10
305.927
 11
308.623
 20
351.509
 21
349.021
  0
LINE
  8
0
 10
308.623
 11
308.764
 20
349.021
 21
348.863
  0
LINE
  8
0
 10
308.764
 11
310.997
 20
348.863
 21
346.346
  0
LINE
  8
0
 10
310.997
 11
311.147
 20
346.346
 21
346.136
  0
LINE
  8
0
 10
311.147
 11
311.458
 20
346.136
 21
345.694
  0
LINE
  8
0
 10
311.458
 11
312.915
 20
345.694
 21
343.619
  0
LINE
  8
0
 10
312.915
 11
313.04
 20
343.619
 21
343.384
  0
LINE
  8
0
 10
313.04
 11
314.372
 20
343.384
 21
340.869
  0
LINE
  8
0
 10
314.372
 11
314.391
 20
340.869
 21
340.817
  0
LINE
  8
0
 10
314.391
 11
315.371
 20
340.817
 21
338.123
  0
LINE
  8
0
 10
315.371
 11
315.422
 20
338.123
 21
337.87
  0
LINE
  8
0
 10
315.422
 11
315.9
 20
337.87
 21
335.486
  0
LINE
  8
0
 10
315.9
 11
315.914
 20
335.486
 21
335.412
  0
LINE
  8
0
 10
315.914
 11
315.929
 20
335.412
 21
335.092
  0
LINE
  8
0
 10
315.929
 11
315.941
 20
335.092
 21
334.777
  0
LINE
  8
0
 10
315.941
 11
316.015
 20
334.777
 21
332.768
  0
LINE
  8
0
 10
316.015
 11
315.966
 20
332.768
 21
332.372
  0
LINE
  8
0
 10
315.966
 11
315.69
 20
332.372
 21
330.223
  0
LINE
  8
0
 10
315.69
 11
315.642
 20
330.223
 21
330.062
  0
LINE
  8
0
 10
315.642
 11
314.956
 20
330.062
 21
327.809
  0
LINE
  8
0
 10
314.956
 11
314.925
 20
327.809
 21
327.746
  0
LINE
  8
0
 10
314.925
 11
313.84
 20
327.746
 21
325.559
  0
LINE
  8
0
 10
313.84
 11
313.805
 20
325.559
 21
325.511
  0
LINE
  8
0
 10
313.805
 11
312.367
 20
325.511
 21
323.503
  0
LINE
  8
0
 10
312.367
 11
310.649
 20
323.503
 21
321.754
  0
LINE
  8
0
 10
310.649
 11
310.568
 20
321.754
 21
321.671
  0
LINE
  8
0
 10
310.568
 11
308.577
 20
321.671
 21
320.168
  0
LINE
  8
0
 10
308.577
 11
308.474
 20
320.168
 21
320.09
  0
LINE
  8
0
 10
308.474
 11
306.225
 20
320.09
 21
318.842
  0
LINE
  8
0
 10
306.225
 11
306.121
 20
318.842
 21
318.785
  0
LINE
  8
0
 10
306.121
 11
303.63
 20
318.785
 21
317.81
  0
LINE
  8
0
 10
303.63
 11
303.542
 20
317.81
 21
317.776
  0
LINE
  8
0
 10
303.542
 11
300.859
 20
317.776
 21
317.104
  0
LINE
  8
0
 10
300.859
 11
300.774
 20
317.104
 21
317.083
  0
LINE
  8
0
 10
300.774
 11
298.002
 20
317.083
 21
316.739
  0
LINE
  8
0
 10
298.002
 11
297.851
 20
316.739
 21
316.72
  0
LINE
  8
0
 10
297.851
 11
295.162
 20
316.72
 21
316.701
  0
LINE
  8
0
 10
295.162
 11
294.806
 20
316.701
 21
316.698
  0
LINE
  8
0
 10
294.806
 11
294.366
 20
316.698
 21
316.745
  0
LINE
  8
0
 10
294.366
 11
291.728
 20
316.745
 21
317.021
  0
LINE
  8
0
 10
291.728
 11
291.676
 20
317.021
 21
317.027
  0
LINE
  8
0
 10
291.676
 11
291.325
 20
317.027
 21
317.101
  0
LINE
  8
0
 10
291.325
 11
289.999
 20
317.101
 21
317.385
  0
LINE
  8
0
 10
289.999
 11
289.008
 20
317.385
 21
317.598
  0
LINE
  8
0
 10
289.008
 11
288.489
 20
317.598
 21
317.709
  0
LINE
  8
0
 10
288.489
 11
285.414
 20
317.709
 21
318.702
  0
LINE
  8
0
 10
285.414
 11
285.276
 20
318.702
 21
318.747
  0
LINE
  8
0
 10
285.276
 11
282.309
 20
318.747
 21
320.029
  0
LINE
  8
0
 10
282.309
 11
282.062
 20
320.029
 21
320.136
  0
LINE
  8
0
 10
282.062
 11
281.782
 20
320.136
 21
320.289
  0
LINE
  8
0
 10
281.782
 11
279.009
 20
320.289
 21
321.799
  0
LINE
  8
0
 10
279.009
 11
278.873
 20
321.799
 21
321.873
  0
LINE
  8
0
 10
278.873
 11
278.767
 20
321.873
 21
321.942
  0
LINE
  8
0
 10
278.767
 11
277.797
 20
321.942
 21
322.584
  0
LINE
  8
0
 10
277.797
 11
276.011
 20
322.584
 21
323.761
  0
LINE
  8
0
 10
276.011
 11
275.73
 20
323.761
 21
323.947
  0
LINE
  8
0
 10
275.73
 11
272.849
 20
323.947
 21
326.193
  0
LINE
  8
0
 10
272.849
 11
272.652
 20
326.193
 21
326.347
  0
LINE
  8
0
 10
272.652
 11
272.45
 20
326.347
 21
326.529
  0
LINE
  8
0
 10
272.45
 11
269.841
 20
326.529
 21
328.89
  0
LINE
  8
0
 10
269.841
 11
269.653
 20
328.89
 21
329.058
  0
LINE
  8
0
 10
269.653
 11
269.643
 20
329.058
 21
329.069
  0
LINE
  8
0
 10
269.643
 11
268.868
 20
329.069
 21
329.88
  0
LINE
  8
0
 10
268.868
 11
266.933
 20
329.88
 21
331.874
  0
LINE
  8
0
 10
266.933
 11
266.752
 20
331.874
 21
332.06
  0
LINE
  8
0
 10
266.752
 11
264.27
 20
332.06
 21
334.97
  0
LINE
  8
0
 10
264.27
 11
263.958
 20
334.97
 21
335.331
  0
LINE
  8
0
 10
263.958
 11
263.818
 20
335.331
 21
335.517
  0
LINE
  8
0
 10
263.818
 11
262.533
 20
335.517
 21
337.228
  0
LINE
  8
0
 10
262.533
 11
261.814
 20
337.228
 21
338.162
  0
LINE
  8
0
 10
261.814
 11
261.601
 20
338.162
 21
338.436
  0
LINE
  8
0
 10
261.601
 11
261.285
 20
338.436
 21
338.842
  0
LINE
  8
0
 10
261.285
 11
258.878
 20
338.842
 21
342.376
  0
LINE
  8
0
 10
258.878
 11
258.751
 20
342.376
 21
342.559
  0
LINE
  8
0
 10
258.751
 11
258.633
 20
342.559
 21
342.75
  0
LINE
  8
0
 10
258.633
 11
256.526
 20
342.75
 21
346.207
  0
LINE
  8
0
 10
256.526
 11
256.371
 20
346.207
 21
346.444
  0
LINE
  8
0
 10
256.371
 11
256.202
 20
346.444
 21
346.777
  0
LINE
  8
0
 10
256.202
 11
255.69
 20
346.777
 21
347.755
  0
LINE
  8
0
 10
255.69
 11
254.332
 20
347.755
 21
350.189
  0
LINE
  8
0
 10
254.332
 11
254.193
 20
350.189
 21
350.433
  0
LINE
  8
0
 10
254.193
 11
252.483
 20
350.433
 21
354.025
  0
LINE
  8
0
 10
252.483
 11
252.259
 20
354.025
 21
354.459
  0
LINE
  8
0
 10
252.259
 11
252.211
 20
354.459
 21
354.58
  0
LINE
  8
0
 10
252.211
 11
251.353
 20
354.58
 21
356.844
  0
LINE
  8
0
 10
251.353
 11
250.999
 20
356.844
 21
357.683
  0
LINE
  8
0
 10
250.999
 11
250.666
 20
357.683
 21
358.416
  0
LINE
  8
0
 10
250.666
 11
250.622
 20
358.416
 21
358.617
  0
LINE
  8
0
 10
250.622
 11
249.693
 20
358.617
 21
361.945
  0
LINE
  8
0
 10
249.693
 11
249.635
 20
361.945
 21
362.104
  0
LINE
  8
0
 10
249.635
 11
249.437
 20
362.104
 21
365.094
  0
LINE
  8
0
 10
249.437
 11
249.401
 20
365.094
 21
365.314
  0
ENDSEC
  0
SECTION
  2
OBJECTS
  0
DICTIONARY
  0
ENDSEC
  0
EOF
